{
	"asset":{
		"generator":"Khronos glTF Blender I/O v3.6.27",
		"version":"2.0"
	},
	"scene":1,
	"scenes":[
		{
			"name":"Scene"
		},
		{
			"name":"Scene.001",
			"nodes":[
				0
			]
		}
	],
	"nodes":[
		{
			"mesh":0,
			"name":"ball"
		}
	],
	"materials":[
		{
			"doubleSided":true,
			"name":"ball_red",
			"pbrMetallicRoughness":{
				"baseColorFactor":[
					0.8000000715255737,
					0.049771975725889206,
					0,
					1
				],
				"metallicFactor":0,
				"roughnessFactor":0.5
			}
		},
		{
			"doubleSided":true,
			"name":"ball_black",
			"pbrMetallicRoughness":{
				"baseColorFactor":[
					0,
					0,
					0,
					1
				],
				"metallicFactor":0,
				"roughnessFactor":0.5
			}
		}
	],
	"meshes":[
		{
			"name":"Sphere.001",
			"primitives":[
				{
					"attributes":{
						"POSITION":0,
						"NORMAL":1,
						"TEXCOORD_0":2
					},
					"indices":3,
					"material":0
				},
				{
					"attributes":{
						"POSITION":4,
						"NORMAL":5,
						"TEXCOORD_0":6
					},
					"indices":7,
					"material":1
				}
			]
		}
	],
	"accessors":[
		{
			"bufferView":0,
			"componentType":5126,
			"count":1736,
			"max":[
				0.9999997019767761,
				1,
				0.9999993443489075
			],
			"min":[
				-0.9999990463256836,
				-1,
				-1
			],
			"type":"VEC3"
		},
		{
			"bufferView":1,
			"componentType":5126,
			"count":1736,
			"type":"VEC3"
		},
		{
			"bufferView":2,
			"componentType":5126,
			"count":1736,
			"type":"VEC2"
		},
		{
			"bufferView":3,
			"componentType":5123,
			"count":2520,
			"type":"SCALAR"
		},
		{
			"bufferView":4,
			"componentType":5126,
			"count":248,
			"max":[
				0.9999997019767761,
				1,
				0.9999993443489075
			],
			"min":[
				-0.9999990463256836,
				-1,
				-1
			],
			"type":"VEC3"
		},
		{
			"bufferView":5,
			"componentType":5126,
			"count":248,
			"type":"VEC3"
		},
		{
			"bufferView":6,
			"componentType":5126,
			"count":248,
			"type":"VEC2"
		},
		{
			"bufferView":7,
			"componentType":5123,
			"count":360,
			"type":"SCALAR"
		}
	],
	"bufferViews":[
		{
			"buffer":0,
			"byteLength":20832,
			"byteOffset":0,
			"target":34962
		},
		{
			"buffer":0,
			"byteLength":20832,
			"byteOffset":20832,
			"target":34962
		},
		{
			"buffer":0,
			"byteLength":13888,
			"byteOffset":41664,
			"target":34962
		},
		{
			"buffer":0,
			"byteLength":5040,
			"byteOffset":55552,
			"target":34963
		},
		{
			"buffer":0,
			"byteLength":2976,
			"byteOffset":60592,
			"target":34962
		},
		{
			"buffer":0,
			"byteLength":2976,
			"byteOffset":63568,
			"target":34962
		},
		{
			"buffer":0,
			"byteLength":1984,
			"byteOffset":66544,
			"target":34962
		},
		{
			"buffer":0,
			"byteLength":720,
			"byteOffset":68528,
			"target":34963
		}
	],
	"buffers":[
		{
			"byteLength":69248,
			"uri":"ball.bin"
		}
	]
}
