{
	"asset":{
		"generator":"Khronos glTF Blender I/O v3.6.27",
		"version":"2.0"
	},
	"scene":0,
	"scenes":[
		{
			"name":"Scene",
			"nodes":[
				20
			]
		}
	],
	"nodes":[
		{
			"mesh":0,
			"name":"Object_6"
		},
		{
			"children":[
				0
			],
			"name":"Cylinder.001_1",
			"rotation":[
				0.003221228951588273,
				0,
				0,
				0.9999948143959045
			],
			"scale":[
				1.1584804058074951,
				0.05131442844867706,
				1.1584804058074951
			],
			"translation":[
				0,
				-0.07966531813144684,
				-0.0015446394681930542
			]
		},
		{
			"mesh":1,
			"name":"Object_8"
		},
		{
			"children":[
				2
			],
			"name":"Cylinder.002_2",
			"rotation":[
				0.003221221501007676,
				0,
				0,
				0.9999948143959045
			],
			"scale":[
				1.015023946762085,
				0.17928262054920197,
				1.015023946762085
			],
			"translation":[
				0,
				0.1350572407245636,
				-0.0001613665372133255
			]
		},
		{
			"mesh":2,
			"name":"Object_12"
		},
		{
			"children":[
				4
			],
			"name":"Cylinder.003_4",
			"rotation":[
				0.08474767208099365,
				0,
				0,
				0.9964024424552917
			],
			"scale":[
				0.6083687543869019,
				0.0388023778796196,
				0.6083688139915466
			],
			"translation":[
				-0.05362517759203911,
				0.4018220007419586,
				0.6623661518096924
			]
		},
		{
			"mesh":3,
			"name":"Object_14"
		},
		{
			"children":[
				6
			],
			"name":"Cylinder.004_5",
			"rotation":[
				-0.04027082026004791,
				0.002350441413000226,
				-0.07953454554080963,
				0.9960156679153442
			],
			"scale":[
				0.6083686947822571,
				0.0388023741543293,
				0.6083687543869019
			],
			"translation":[
				0.5249952077865601,
				0.4206242859363556,
				-0.40082457661628723
			]
		},
		{
			"mesh":4,
			"name":"Object_16"
		},
		{
			"children":[
				8
			],
			"name":"Cylinder.005_6",
			"rotation":[
				-0.048636846244335175,
				-0.24129267036914825,
				0.09475021064281464,
				0.9645904898643494
			],
			"scale":[
				0.6083687543869019,
				0.0388023778796196,
				0.6083688139915466
			],
			"translation":[
				-0.5690276026725769,
				0.426327645778656,
				-0.40116214752197266
			]
		},
		{
			"mesh":5,
			"name":"Object_18"
		},
		{
			"children":[
				10
			],
			"name":"Cylinder.006_7",
			"rotation":[
				0.003221221501007676,
				0,
				0,
				0.9999948143959045
			],
			"scale":[
				1.1985423564910889,
				0.0530889555811882,
				1.1985423564910889
			],
			"translation":[
				0,
				0.4589194059371948,
				0.0019251853227615356
			]
		},
		{
			"mesh":6,
			"name":"Object_4"
		},
		{
			"children":[
				12
			],
			"name":"Cylinder_0",
			"rotation":[
				-0.9999948143959045,
				0,
				0,
				0.0032213034573942423
			],
			"scale":[
				1.095651388168335,
				0.18414729833602905,
				1.095651388168335
			],
			"translation":[
				0,
				-0.30097338557243347,
				-0.002970457077026367
			]
		},
		{
			"mesh":7,
			"name":"Object_10"
		},
		{
			"children":[
				14
			],
			"name":"Plane_3",
			"rotation":[
				0.0032212440855801105,
				0,
				0,
				0.9999948143959045
			],
			"translation":[
				0,
				0.3832017779350281,
				0.0014373697340488434
			]
		},
		{
			"mesh":8,
			"name":"Object_20"
		},
		{
			"children":[
				16
			],
			"name":"Sphere_8",
			"rotation":[
				0.003221228951588273,
				0,
				0,
				0.9999948143959045
			],
			"scale":[
				1.0778453350067139,
				0.6861461400985718,
				1.0778452157974243
			],
			"translation":[
				0,
				0.4639134407043457,
				0.001957334578037262
			]
		},
		{
			"children":[
				1,
				3,
				5,
				7,
				9,
				11,
				13,
				15,
				17
			],
			"name":"GLTF_SceneRootNode",
			"rotation":[
				0.70710688829422,
				0,
				0,
				0.7071066498756409
			]
		},
		{
			"children":[
				18
			],
			"name":"root"
		},
		{
			"children":[
				19
			],
			"name":"Sketchfab_model",
			"rotation":[
				-0.70710688829422,
				0,
				0,
				0.7071066498756409
			]
		}
	],
	"materials":[
		{
			"doubleSided":true,
			"name":"Material.003",
			"pbrMetallicRoughness":{
				"baseColorFactor":[
					0.11193200200796127,
					0.4019779860973358,
					0.033104900270700455,
					1
				],
				"metallicFactor":0,
				"roughnessFactor":0.5
			}
		},
		{
			"doubleSided":true,
			"name":"Material.006",
			"pbrMetallicRoughness":{
				"baseColorFactor":[
					0.20507900416851044,
					0.04518619924783707,
					0.005605409853160381,
					1
				],
				"metallicFactor":0,
				"roughnessFactor":0.5
			}
		},
		{
			"doubleSided":true,
			"name":"Material.004",
			"pbrMetallicRoughness":{
				"baseColorFactor":[
					0.577580988407135,
					0.004391300026327372,
					0.005605409853160381,
					1
				],
				"metallicFactor":0,
				"roughnessFactor":0.30000001192092896
			}
		},
		{
			"doubleSided":true,
			"name":"Material.001",
			"pbrMetallicRoughness":{
				"baseColorFactor":[
					0.6587263941764832,
					0.3012668192386627,
					0.005693984217941761,
					1
				],
				"metallicFactor":0,
				"roughnessFactor":0.5
			}
		},
		{
			"doubleSided":true,
			"name":"Material.005",
			"pbrMetallicRoughness":{
				"baseColorFactor":[
					0.9559730291366577,
					0.31854701042175293,
					0,
					1
				],
				"metallicFactor":0,
				"roughnessFactor":0.4000000059604645
			}
		}
	],
	"meshes":[
		{
			"name":"Object_1",
			"primitives":[
				{
					"attributes":{
						"POSITION":0,
						"NORMAL":1,
						"TEXCOORD_0":2
					},
					"indices":3,
					"material":0
				}
			]
		},
		{
			"name":"Object_2",
			"primitives":[
				{
					"attributes":{
						"POSITION":4,
						"NORMAL":5,
						"TEXCOORD_0":6
					},
					"indices":7,
					"material":1
				}
			]
		},
		{
			"name":"Object_4",
			"primitives":[
				{
					"attributes":{
						"POSITION":8,
						"NORMAL":9,
						"TEXCOORD_0":10
					},
					"indices":11,
					"material":2
				}
			]
		},
		{
			"name":"Object_5",
			"primitives":[
				{
					"attributes":{
						"POSITION":12,
						"NORMAL":13,
						"TEXCOORD_0":14
					},
					"indices":11,
					"material":2
				}
			]
		},
		{
			"name":"Object_6",
			"primitives":[
				{
					"attributes":{
						"POSITION":15,
						"NORMAL":16,
						"TEXCOORD_0":17
					},
					"indices":11,
					"material":2
				}
			]
		},
		{
			"name":"Object_7",
			"primitives":[
				{
					"attributes":{
						"POSITION":18,
						"NORMAL":19,
						"TEXCOORD_0":20
					},
					"indices":21,
					"material":0
				}
			]
		},
		{
			"name":"Object_0",
			"primitives":[
				{
					"attributes":{
						"POSITION":22,
						"NORMAL":23,
						"TEXCOORD_0":24
					},
					"indices":25,
					"material":3
				}
			]
		},
		{
			"name":"Object_3",
			"primitives":[
				{
					"attributes":{
						"POSITION":26,
						"NORMAL":27,
						"TEXCOORD_0":28
					},
					"indices":29,
					"material":4
				}
			]
		},
		{
			"name":"Object_8",
			"primitives":[
				{
					"attributes":{
						"POSITION":30,
						"NORMAL":31,
						"TEXCOORD_0":32
					},
					"indices":33,
					"material":3
				}
			]
		}
	],
	"accessors":[
		{
			"bufferView":0,
			"componentType":5126,
			"count":5643,
			"max":[
				0.9649894833564758,
				1.1005479097366333,
				0.9649894833564758
			],
			"min":[
				-0.9649896025657654,
				-1.1098144054412842,
				-0.9649896025657654
			],
			"type":"VEC3"
		},
		{
			"bufferView":1,
			"componentType":5126,
			"count":5643,
			"type":"VEC3"
		},
		{
			"bufferView":2,
			"componentType":5126,
			"count":5643,
			"type":"VEC2"
		},
		{
			"bufferView":3,
			"componentType":5123,
			"count":30720,
			"type":"SCALAR"
		},
		{
			"bufferView":4,
			"componentType":5126,
			"count":3087,
			"max":[
				1.0480377674102783,
				1.1270413398742676,
				1.0533915758132935
			],
			"min":[
				-1.0487817525863647,
				-1.110094428062439,
				-1.0463758707046509
			],
			"type":"VEC3"
		},
		{
			"bufferView":5,
			"componentType":5126,
			"count":3087,
			"type":"VEC3"
		},
		{
			"bufferView":6,
			"componentType":5126,
			"count":3087,
			"type":"VEC2"
		},
		{
			"bufferView":7,
			"componentType":5123,
			"count":16896,
			"type":"SCALAR"
		},
		{
			"bufferView":8,
			"componentType":5126,
			"count":8490,
			"max":[
				1,
				1,
				1
			],
			"min":[
				-1,
				-1,
				-1
			],
			"type":"VEC3"
		},
		{
			"bufferView":9,
			"componentType":5126,
			"count":8490,
			"type":"VEC3"
		},
		{
			"bufferView":10,
			"componentType":5126,
			"count":8490,
			"type":"VEC2"
		},
		{
			"bufferView":11,
			"componentType":5123,
			"count":47652,
			"type":"SCALAR"
		},
		{
			"bufferView":12,
			"componentType":5126,
			"count":8490,
			"max":[
				1,
				1,
				1
			],
			"min":[
				-1,
				-1,
				-1
			],
			"type":"VEC3"
		},
		{
			"bufferView":13,
			"componentType":5126,
			"count":8490,
			"type":"VEC3"
		},
		{
			"bufferView":14,
			"componentType":5126,
			"count":8490,
			"type":"VEC2"
		},
		{
			"bufferView":15,
			"componentType":5126,
			"count":8490,
			"max":[
				1,
				1,
				1
			],
			"min":[
				-1,
				-1,
				-1
			],
			"type":"VEC3"
		},
		{
			"bufferView":16,
			"componentType":5126,
			"count":8490,
			"type":"VEC3"
		},
		{
			"bufferView":17,
			"componentType":5126,
			"count":8490,
			"type":"VEC2"
		},
		{
			"bufferView":18,
			"componentType":5126,
			"count":5643,
			"max":[
				0.9649894833564758,
				1.1005479097366333,
				0.9649894833564758
			],
			"min":[
				-0.9649896025657654,
				-1.1098144054412842,
				-0.9649896025657654
			],
			"type":"VEC3"
		},
		{
			"bufferView":19,
			"componentType":5126,
			"count":5643,
			"type":"VEC3"
		},
		{
			"bufferView":20,
			"componentType":5126,
			"count":5643,
			"type":"VEC2"
		},
		{
			"bufferView":21,
			"componentType":5123,
			"count":30720,
			"type":"SCALAR"
		},
		{
			"bufferView":22,
			"componentType":5126,
			"count":3087,
			"max":[
				1.0236778259277344,
				1.0000003576278687,
				1.0236778259277344
			],
			"min":[
				-1.0236778259277344,
				-1.0000003576278687,
				-1.0236778259277344
			],
			"type":"VEC3"
		},
		{
			"bufferView":23,
			"componentType":5126,
			"count":3087,
			"type":"VEC3"
		},
		{
			"bufferView":24,
			"componentType":5126,
			"count":3087,
			"type":"VEC2"
		},
		{
			"bufferView":25,
			"componentType":5123,
			"count":16896,
			"type":"SCALAR"
		},
		{
			"bufferView":26,
			"componentType":5126,
			"count":6987,
			"max":[
				0.9808001518249512,
				0,
				0.9796273112297058
			],
			"min":[
				-0.9818970561027527,
				-0.29957932233810425,
				-0.9796427488327026
			],
			"type":"VEC3"
		},
		{
			"bufferView":27,
			"componentType":5126,
			"count":6987,
			"type":"VEC3"
		},
		{
			"bufferView":28,
			"componentType":5126,
			"count":6987,
			"type":"VEC2"
		},
		{
			"bufferView":29,
			"componentType":5123,
			"count":36864,
			"type":"SCALAR"
		},
		{
			"bufferView":30,
			"componentType":5126,
			"count":24772,
			"max":[
				0.9853371977806091,
				1.0214285850524902,
				0.9842672348022461
			],
			"min":[
				-0.9891514182090759,
				-0.0006328767631202936,
				-0.9880415797233582
			],
			"type":"VEC3"
		},
		{
			"bufferView":31,
			"componentType":5126,
			"count":24772,
			"type":"VEC3"
		},
		{
			"bufferView":32,
			"componentType":5126,
			"count":24772,
			"type":"VEC2"
		},
		{
			"bufferView":33,
			"componentType":5123,
			"count":33792,
			"type":"SCALAR"
		}
	],
	"bufferViews":[
		{
			"buffer":0,
			"byteLength":67716,
			"byteOffset":0,
			"target":34962
		},
		{
			"buffer":0,
			"byteLength":67716,
			"byteOffset":67716,
			"target":34962
		},
		{
			"buffer":0,
			"byteLength":45144,
			"byteOffset":135432,
			"target":34962
		},
		{
			"buffer":0,
			"byteLength":61440,
			"byteOffset":180576,
			"target":34963
		},
		{
			"buffer":0,
			"byteLength":37044,
			"byteOffset":242016,
			"target":34962
		},
		{
			"buffer":0,
			"byteLength":37044,
			"byteOffset":279060,
			"target":34962
		},
		{
			"buffer":0,
			"byteLength":24696,
			"byteOffset":316104,
			"target":34962
		},
		{
			"buffer":0,
			"byteLength":33792,
			"byteOffset":340800,
			"target":34963
		},
		{
			"buffer":0,
			"byteLength":101880,
			"byteOffset":374592,
			"target":34962
		},
		{
			"buffer":0,
			"byteLength":101880,
			"byteOffset":476472,
			"target":34962
		},
		{
			"buffer":0,
			"byteLength":67920,
			"byteOffset":578352,
			"target":34962
		},
		{
			"buffer":0,
			"byteLength":95304,
			"byteOffset":646272,
			"target":34963
		},
		{
			"buffer":0,
			"byteLength":101880,
			"byteOffset":741576,
			"target":34962
		},
		{
			"buffer":0,
			"byteLength":101880,
			"byteOffset":843456,
			"target":34962
		},
		{
			"buffer":0,
			"byteLength":67920,
			"byteOffset":945336,
			"target":34962
		},
		{
			"buffer":0,
			"byteLength":101880,
			"byteOffset":1013256,
			"target":34962
		},
		{
			"buffer":0,
			"byteLength":101880,
			"byteOffset":1115136,
			"target":34962
		},
		{
			"buffer":0,
			"byteLength":67920,
			"byteOffset":1217016,
			"target":34962
		},
		{
			"buffer":0,
			"byteLength":67716,
			"byteOffset":1284936,
			"target":34962
		},
		{
			"buffer":0,
			"byteLength":67716,
			"byteOffset":1352652,
			"target":34962
		},
		{
			"buffer":0,
			"byteLength":45144,
			"byteOffset":1420368,
			"target":34962
		},
		{
			"buffer":0,
			"byteLength":61440,
			"byteOffset":1465512,
			"target":34963
		},
		{
			"buffer":0,
			"byteLength":37044,
			"byteOffset":1526952,
			"target":34962
		},
		{
			"buffer":0,
			"byteLength":37044,
			"byteOffset":1563996,
			"target":34962
		},
		{
			"buffer":0,
			"byteLength":24696,
			"byteOffset":1601040,
			"target":34962
		},
		{
			"buffer":0,
			"byteLength":33792,
			"byteOffset":1625736,
			"target":34963
		},
		{
			"buffer":0,
			"byteLength":83844,
			"byteOffset":1659528,
			"target":34962
		},
		{
			"buffer":0,
			"byteLength":83844,
			"byteOffset":1743372,
			"target":34962
		},
		{
			"buffer":0,
			"byteLength":55896,
			"byteOffset":1827216,
			"target":34962
		},
		{
			"buffer":0,
			"byteLength":73728,
			"byteOffset":1883112,
			"target":34963
		},
		{
			"buffer":0,
			"byteLength":297264,
			"byteOffset":1956840,
			"target":34962
		},
		{
			"buffer":0,
			"byteLength":297264,
			"byteOffset":2254104,
			"target":34962
		},
		{
			"buffer":0,
			"byteLength":198176,
			"byteOffset":2551368,
			"target":34962
		},
		{
			"buffer":0,
			"byteLength":67584,
			"byteOffset":2749544,
			"target":34963
		}
	],
	"buffers":[
		{
			"byteLength":2817128,
			"uri":"burger.bin"
		}
	]
}
