{
	"asset":{
		"generator":"Khronos glTF Blender I/O v3.6.27",
		"version":"2.0"
	},
	"scene":0,
	"scenes":[
		{
			"name":"Scene",
			"nodes":[
				0,
				1
			]
		}
	],
	"nodes":[
		{
			"mesh":0,
			"name":"Cylinder"
		},
		{
			"name":"Empty",
			"translation":[
				0,
				0.5112164616584778,
				0
			]
		}
	],
	"animations":[
		{
			"channels":[
				{
					"sampler":0,
					"target":{
						"node":1,
						"path":"translation"
					}
				},
				{
					"sampler":1,
					"target":{
						"node":1,
						"path":"rotation"
					}
				},
				{
					"sampler":2,
					"target":{
						"node":1,
						"path":"scale"
					}
				}
			],
			"name":"EmptyAction",
			"samplers":[
				{
					"input":8,
					"interpolation":"LINEAR",
					"output":9
				},
				{
					"input":10,
					"interpolation":"STEP",
					"output":11
				},
				{
					"input":10,
					"interpolation":"STEP",
					"output":12
				}
			]
		}
	],
	"materials":[
		{
			"doubleSided":true,
			"name":"Material.001",
			"pbrMetallicRoughness":{
				"baseColorFactor":[
					0,
					0,
					0,
					1
				],
				"metallicFactor":0,
				"roughnessFactor":0.5
			}
		},
		{
			"doubleSided":true,
			"name":"Material.002",
			"pbrMetallicRoughness":{
				"baseColorFactor":[
					0.3283078968524933,
					0.05349483713507652,
					0.003036964451894164,
					1
				],
				"metallicFactor":0,
				"roughnessFactor":0.5
			}
		}
	],
	"meshes":[
		{
			"name":"Cylinder",
			"primitives":[
				{
					"attributes":{
						"POSITION":0,
						"NORMAL":1,
						"TEXCOORD_0":2
					},
					"indices":3,
					"material":0
				},
				{
					"attributes":{
						"POSITION":4,
						"NORMAL":5,
						"TEXCOORD_0":6
					},
					"indices":7,
					"material":1
				}
			]
		}
	],
	"accessors":[
		{
			"bufferView":0,
			"componentType":5126,
			"count":1002,
			"max":[
				1.686316728591919,
				1,
				0.9958263635635376
			],
			"min":[
				-0.9958263635635376,
				-1,
				-0.9958264231681824
			],
			"type":"VEC3"
		},
		{
			"bufferView":1,
			"componentType":5126,
			"count":1002,
			"type":"VEC3"
		},
		{
			"bufferView":2,
			"componentType":5126,
			"count":1002,
			"type":"VEC2"
		},
		{
			"bufferView":3,
			"componentType":5123,
			"count":2430,
			"type":"SCALAR"
		},
		{
			"bufferView":4,
			"componentType":5126,
			"count":32,
			"max":[
				0.8959112167358398,
				0.7491379976272583,
				0.8959112167358398
			],
			"min":[
				-0.8959112167358398,
				0.7491379976272583,
				-0.8959112167358398
			],
			"type":"VEC3"
		},
		{
			"bufferView":5,
			"componentType":5126,
			"count":32,
			"type":"VEC3"
		},
		{
			"bufferView":6,
			"componentType":5126,
			"count":32,
			"type":"VEC2"
		},
		{
			"bufferView":7,
			"componentType":5123,
			"count":90,
			"type":"SCALAR"
		},
		{
			"bufferView":8,
			"componentType":5126,
			"count":41,
			"max":[
				1.6666666666666667
			],
			"min":[
				0
			],
			"type":"SCALAR"
		},
		{
			"bufferView":9,
			"componentType":5126,
			"count":41,
			"type":"VEC3"
		},
		{
			"bufferView":10,
			"componentType":5126,
			"count":2,
			"max":[
				1.6666666666666667
			],
			"min":[
				0
			],
			"type":"SCALAR"
		},
		{
			"bufferView":11,
			"componentType":5126,
			"count":2,
			"type":"VEC4"
		},
		{
			"bufferView":12,
			"componentType":5126,
			"count":2,
			"type":"VEC3"
		}
	],
	"bufferViews":[
		{
			"buffer":0,
			"byteLength":12024,
			"byteOffset":0,
			"target":34962
		},
		{
			"buffer":0,
			"byteLength":12024,
			"byteOffset":12024,
			"target":34962
		},
		{
			"buffer":0,
			"byteLength":8016,
			"byteOffset":24048,
			"target":34962
		},
		{
			"buffer":0,
			"byteLength":4860,
			"byteOffset":32064,
			"target":34963
		},
		{
			"buffer":0,
			"byteLength":384,
			"byteOffset":36924,
			"target":34962
		},
		{
			"buffer":0,
			"byteLength":384,
			"byteOffset":37308,
			"target":34962
		},
		{
			"buffer":0,
			"byteLength":256,
			"byteOffset":37692,
			"target":34962
		},
		{
			"buffer":0,
			"byteLength":180,
			"byteOffset":37948,
			"target":34963
		},
		{
			"buffer":0,
			"byteLength":164,
			"byteOffset":38128
		},
		{
			"buffer":0,
			"byteLength":492,
			"byteOffset":38292
		},
		{
			"buffer":0,
			"byteLength":8,
			"byteOffset":38784
		},
		{
			"buffer":0,
			"byteLength":32,
			"byteOffset":38792
		},
		{
			"buffer":0,
			"byteLength":24,
			"byteOffset":38824
		}
	],
	"buffers":[
		{
			"byteLength":38848,
			"uri":"tea.bin"
		}
	]
}
